<svg width="900" height="500" viewBox="0 0 900 500" fill="none" xmlns="http://www.w3.org/2000/svg" role="img" aria-labelledby="title desc">
  <title id="title">AR commerce project thumbnail</title>
  <desc id="desc">A visual card for an AR virtual try-on commerce application.</desc>
  <rect width="900" height="500" rx="28" fill="#111827"/>
  <rect x="56" y="54" width="332" height="392" rx="36" fill="#020617" stroke="#475569" stroke-width="3"/>
  <rect x="83" y="95" width="278" height="284" rx="24" fill="#0F172A" stroke="#334155"/>
  <circle cx="222" cy="237" r="82" fill="#14B8A6" opacity="0.18"/>
  <path d="M171 238C191 196 252 196 273 238C254 286 190 286 171 238Z" fill="#38BDF8" opacity="0.9"/>
  <circle cx="222" cy="238" r="27" fill="#0F172A"/>
  <rect x="111" y="401" width="222" height="18" rx="9" fill="#14B8A6"/>
  <text x="438" y="126" fill="#FFFFFF" font-family="Inter, Segoe UI, Arial, sans-serif" font-size="44" font-weight="800">AR Virtual Try-On</text>
  <text x="438" y="174" fill="#BAE6FD" font-family="Inter, Segoe UI, Arial, sans-serif" font-size="25" font-weight="600">3D previews + AI shopping flow</text>
  <rect x="438" y="226" width="150" height="86" rx="18" fill="#0F766E"/>
  <rect x="610" y="226" width="150" height="86" rx="18" fill="#1D4ED8"/>
  <rect x="438" y="334" width="150" height="86" rx="18" fill="#C2410C"/>
  <rect x="610" y="334" width="150" height="86" rx="18" fill="#4C1D95"/>
  <text x="474" y="278" fill="#ECFEFF" font-family="Inter, Segoe UI, Arial, sans-serif" font-size="23" font-weight="700">WebXR</text>
  <text x="653" y="278" fill="#DBEAFE" font-family="Inter, Segoe UI, Arial, sans-serif" font-size="23" font-weight="700">3D</text>
  <text x="481" y="386" fill="#FFEDD5" font-family="Inter, Segoe UI, Arial, sans-serif" font-size="23" font-weight="700">AI</text>
  <text x="636" y="386" fill="#EDE9FE" font-family="Inter, Segoe UI, Arial, sans-serif" font-size="23" font-weight="700">Data</text>
</svg>
