<svg width="900" height="500" viewBox="0 0 900 500" fill="none" xmlns="http://www.w3.org/2000/svg" role="img" aria-labelledby="title desc">
  <title id="title">Mixed Reality training thumbnail</title>
  <desc id="desc">A visual card for mixed reality electrical hazard awareness training.</desc>
  <rect width="900" height="500" rx="28" fill="#0F172A"/>
  <path d="M0 388C152 322 278 340 420 380C592 430 724 382 900 304V500H0V388Z" fill="#164E63" opacity="0.55"/>
  <rect x="92" y="88" width="322" height="250" rx="28" fill="#020617" stroke="#38BDF8" stroke-width="3"/>
  <path d="M138 278L212 166L258 238L304 196L368 278H138Z" fill="#38BDF8" opacity="0.25"/>
  <circle cx="308" cy="151" r="33" fill="#F97316"/>
  <rect x="484" y="110" width="300" height="56" rx="18" fill="#111827" stroke="#334155"/>
  <rect x="484" y="198" width="300" height="56" rx="18" fill="#111827" stroke="#334155"/>
  <rect x="484" y="286" width="300" height="56" rx="18" fill="#111827" stroke="#334155"/>
  <text x="516" y="148" fill="#E2E8F0" font-family="Inter, Segoe UI, Arial, sans-serif" font-size="23" font-weight="700">Spatial Mapping</text>
  <text x="516" y="236" fill="#E2E8F0" font-family="Inter, Segoe UI, Arial, sans-serif" font-size="23" font-weight="700">Depth Sensing</text>
  <text x="516" y="324" fill="#E2E8F0" font-family="Inter, Segoe UI, Arial, sans-serif" font-size="23" font-weight="700">Safety Simulation</text>
  <text x="92" y="414" fill="#FFFFFF" font-family="Inter, Segoe UI, Arial, sans-serif" font-size="42" font-weight="800">Mixed Reality Training</text>
  <text x="92" y="454" fill="#99F6E4" font-family="Inter, Segoe UI, Arial, sans-serif" font-size="24" font-weight="600">Magic Leap 2 hazard awareness modules</text>
</svg>
